<svg width="40" height="40" viewBox="0 0 40 40" fill="none" xmlns="http://www.w3.org/2000/svg">
<path d="M8.83747 27.8223L9.24664 29.4589C9.76492 31.5867 10.897 32.6778 13.1474 32.6778H27.8365C30.1007 32.6778 31.219 31.6139 31.7509 29.4589L32.1601 27.8223H8.83747ZM8.38739 25.9538H32.6238L35.1879 15.4518L34.0695 14.8108L27.782 19.3934C27.3182 19.7208 27.0046 19.598 26.7454 19.2298L20.8261 10.2826L20.1714 10.2554L14.1976 19.2707C13.9657 19.6253 13.6929 19.7345 13.2292 19.4071L7.06441 14.9062L5.75507 15.2472L8.38739 25.9538ZM6.25971 18.1795C8.06006 18.1795 9.50578 16.7202 9.50578 14.9062C9.50578 13.1332 8.06006 11.6602 6.25971 11.6602C4.45937 11.6602 3 13.1195 3 14.9062C3 16.7202 4.473 18.1795 6.25971 18.1795ZM20.4988 12.5058C22.2855 12.5058 23.7448 11.0464 23.7448 9.24607C23.7448 7.473 22.2855 6 20.4988 6C18.6848 6 17.2391 7.45937 17.2391 9.24607C17.2391 11.0464 18.6985 12.5058 20.4988 12.5058ZM34.7242 18.1795C36.511 18.1795 37.9839 16.7202 37.9839 14.9062C37.9839 13.1195 36.5246 11.6602 34.7242 11.6602C32.9376 11.6602 31.4782 13.1332 31.4782 14.9062C31.4782 16.7202 32.9376 18.1795 34.7242 18.1795Z" fill="#9EFF00"/>
</svg>
