<svg width="40" height="40" viewBox="0 0 40 40" fill="none" xmlns="http://www.w3.org/2000/svg">
<path d="M11.2495 22.5C14.7013 22.5 17.4995 25.2982 17.4995 28.75C17.4995 33.5825 13.582 37.5 8.74951 37.5C5.50537 37.4999 2.67513 35.7335 1.16553 33.1162C0.935154 32.7167 0.943348 32.2226 1.18701 31.8311C1.4307 31.4396 1.87047 31.2139 2.33057 31.2441C2.38641 31.2478 2.44304 31.25 2.49951 31.25C3.88023 31.25 4.99951 30.1307 4.99951 28.75C4.99951 25.2983 7.79789 22.5002 11.2495 22.5ZM16.5493 15.7891C20.0183 17.209 22.7902 19.9804 24.2104 23.4492C23.035 24.3412 21.7961 25.1541 20.4985 25.875L19.6597 26.3398C18.8318 23.4457 16.554 21.1655 13.6597 20.3379L14.1245 19.501C14.8453 18.2036 15.6574 16.9644 16.5493 15.7891ZM34.3306 2.5C36.0807 2.5 37.4995 3.91878 37.4995 5.66895C37.4995 6.29458 37.3143 6.9062 36.9673 7.42676L31.3237 15.8916C29.7723 18.2186 27.9207 20.3183 25.8247 22.1406C24.2239 18.6161 21.3826 15.7743 17.8579 14.1738C19.6802 12.0778 21.7809 10.2271 24.1079 8.67578L32.5728 3.03223C33.0932 2.68526 33.7051 2.50008 34.3306 2.5Z" fill="#9EFF00"/>
</svg>
