<svg width="146" height="44" viewBox="0 0 146 44" fill="none" xmlns="http://www.w3.org/2000/svg">
<path d="M21.8754 0C9.79421 0 0 9.79394 0 21.8751C0 33.9568 9.79421 43.75 21.8754 43.75C33.9579 43.75 43.7511 33.9568 43.7511 21.8751C43.7511 9.79472 33.9579 0.00104488 21.8751 0.00104488L21.8754 0ZM31.9073 31.5502C31.5155 32.1928 30.6744 32.3966 30.0318 32.0021C24.8956 28.8649 18.4299 28.1544 10.8153 29.8941C10.0816 30.0613 9.35014 29.6015 9.18295 28.8675C9.01499 28.1335 9.47291 27.402 10.2085 27.2349C18.5415 25.3311 25.6892 26.1508 31.4554 29.6747C32.098 30.0691 32.3018 30.9076 31.9073 31.5502ZM34.5848 25.5939C34.0911 26.3963 33.041 26.6497 32.2391 26.156C26.359 22.5418 17.3957 21.4951 10.4407 23.6062C9.53874 23.8787 8.58606 23.3704 8.31231 22.4699C8.04064 21.5679 8.54923 20.6171 9.44966 20.3428C17.3942 17.9323 27.2707 19.0999 34.0232 23.2494C34.8252 23.7431 35.0785 24.793 34.5848 25.5939ZM34.8147 19.3914C27.7644 15.2038 16.1322 14.8188 9.40081 16.8618C8.31988 17.1896 7.17678 16.5794 6.84921 15.4985C6.52164 14.417 7.13133 13.2747 8.21304 12.9461C15.9402 10.6003 28.7857 11.0535 36.9029 15.8723C37.8773 16.4493 38.196 17.705 37.6187 18.676C37.044 19.6482 35.7849 19.9687 34.8158 19.3914H34.8147ZM59.5158 20.1939C55.7385 19.2932 55.0672 18.6611 55.0672 17.3328C55.0672 16.0779 56.2479 15.2333 58.0059 15.2333C59.7091 15.2333 61.3965 15.8746 63.1676 17.1948C63.2199 17.2348 63.2878 17.2507 63.3531 17.2403C63.421 17.2304 63.4785 17.1941 63.5177 17.1395L65.3619 14.5398C65.4376 14.4327 65.4167 14.2851 65.3148 14.2033C63.2068 12.5125 60.8349 11.6904 58.0608 11.6904C53.9831 11.6904 51.1332 14.1378 51.1332 17.6394C51.1332 21.3945 53.5913 22.7241 57.8387 23.7504C61.4514 24.5829 62.0627 25.2804 62.0627 26.5269C62.0627 27.9088 60.8297 28.7682 58.8444 28.7682C56.6397 28.7682 54.8399 28.0237 52.8285 26.284C52.7789 26.2396 52.711 26.2213 52.6483 26.2239C52.5803 26.2292 52.5203 26.2605 52.4785 26.3101L50.4096 28.7708C50.3234 28.8753 50.3338 29.0268 50.4331 29.1156C52.7736 31.2054 55.6523 32.3078 58.7608 32.3078C63.1546 32.3078 65.994 29.9071 65.994 26.19C66.0019 23.0535 64.1237 21.3164 59.5236 20.1973L59.5158 20.1939ZM75.9361 16.4689C74.0318 16.4689 72.4697 17.2191 71.1793 18.7564V17.0261C71.1793 16.8895 71.0695 16.7782 70.9337 16.7782H67.5509C67.4151 16.7782 67.3054 16.8895 67.3054 17.0261V36.2522C67.3054 36.388 67.4151 36.5004 67.5509 36.5004H70.9337C71.0695 36.5004 71.1793 36.388 71.1793 36.2522V30.184C72.4697 31.6286 74.0318 32.3365 75.9361 32.3365C79.4756 32.3365 83.0596 29.612 83.0596 24.4035C83.0648 19.194 79.4809 16.4686 75.9387 16.4686L75.9361 16.4689ZM79.1256 24.4035C79.1256 27.0546 77.493 28.9067 75.1524 28.9067C72.8406 28.9067 71.0957 26.971 71.0957 24.4035C71.0957 21.8357 72.8406 19.9006 75.1524 19.9006C77.4538 19.9003 79.1256 21.7939 79.1256 24.4035ZM92.2415 16.4689C87.6832 16.4689 84.1123 19.9787 84.1123 24.4602C84.1123 28.8936 87.6597 32.3652 92.1866 32.3652C96.7606 32.3652 100.342 28.8675 100.342 24.4035C100.342 19.9546 96.7841 16.4689 92.2415 16.4689ZM92.2415 28.9328C89.8174 28.9328 87.9888 26.9841 87.9888 24.4022C87.9888 21.8085 89.7547 19.9264 92.1866 19.9264C94.6264 19.9264 96.4654 21.8743 96.4654 24.4589C96.4654 27.052 94.6891 28.9328 92.2415 28.9328ZM110.075 16.7782H106.353V12.9733C106.353 12.8369 106.243 12.7256 106.107 12.7256H102.724C102.588 12.7256 102.476 12.8369 102.476 12.9733V16.7782H100.851C100.715 16.7782 100.606 16.8895 100.606 17.0261V19.9327C100.606 20.0691 100.715 20.1806 100.851 20.1806H102.476V27.7024C102.476 30.7404 103.989 32.2816 106.974 32.2816C108.186 32.2816 109.192 32.0309 110.14 31.4927C110.219 31.451 110.266 31.3674 110.266 31.2785V28.5096C110.266 28.426 110.221 28.345 110.148 28.3006C110.075 28.2536 109.984 28.251 109.908 28.2902C109.257 28.6167 108.628 28.7682 107.923 28.7682C106.839 28.7682 106.353 28.2745 106.353 27.1722V20.1819H110.075C110.211 20.1819 110.321 20.0706 110.321 19.934V17.0277C110.326 16.891 110.216 16.7798 110.078 16.7798L110.075 16.7782ZM123.042 16.7931V16.3258C123.042 14.951 123.57 14.3379 124.75 14.3379C125.456 14.3379 126.023 14.4779 126.657 14.6895C126.736 14.714 126.817 14.7018 126.879 14.655C126.945 14.6082 126.981 14.5333 126.981 14.4539V11.6039C126.981 11.495 126.913 11.3986 126.806 11.3665C126.137 11.1672 125.281 10.9626 123.995 10.9626C120.874 10.9626 119.22 12.7217 119.22 16.0478V16.7636H117.596C117.46 16.7636 117.347 16.8748 117.347 17.0112V19.9327C117.347 20.0691 117.46 20.1806 117.596 20.1806H119.22V31.7801C119.22 31.9185 119.333 32.0283 119.469 32.0283H122.849C122.987 32.0283 123.097 31.9185 123.097 31.7801V20.1814H126.255L131.093 31.7801C130.544 32.9974 130.004 33.2403 129.267 33.2403C128.671 33.2403 128.042 33.0627 127.402 32.71C127.342 32.6787 127.269 32.6735 127.206 32.6918C127.141 32.7153 127.086 32.7623 127.06 32.825L125.913 35.3405C125.858 35.4607 125.905 35.5991 126.02 35.6618C127.216 36.3097 128.295 36.5866 129.63 36.5866C132.127 36.5866 133.509 35.4215 134.724 32.2921L140.591 17.1316C140.622 17.0553 140.612 16.9691 140.565 16.9015C140.52 16.8344 140.445 16.7939 140.364 16.7939H136.842C136.735 16.7939 136.641 16.861 136.607 16.96L133 27.261L129.05 16.9532C129.014 16.8573 128.922 16.7939 128.82 16.7939L123.042 16.7931ZM115.524 16.7782H112.141C112.005 16.7782 111.893 16.8895 111.893 17.0261V31.7801C111.893 31.9185 112.005 32.0283 112.141 32.0283H115.524C115.66 32.0283 115.772 31.9185 115.772 31.7801V17.0271C115.772 16.8905 115.663 16.7792 115.524 16.7792V16.7782ZM113.852 10.0599C112.512 10.0599 111.426 11.1445 111.426 12.4843C111.426 13.8248 112.512 14.9107 113.852 14.9107C115.192 14.9107 116.276 13.8248 116.276 12.4843C116.276 11.1447 115.19 10.0599 113.852 10.0599ZM143.48 21.5222C142.143 21.5222 141.1 20.4473 141.1 19.142C141.1 17.8367 142.156 16.7495 143.493 16.7495C144.83 16.7495 145.873 17.8241 145.873 19.1284C145.873 20.4337 144.817 21.5222 143.48 21.5222ZM143.493 16.9861C142.273 16.9861 141.351 17.9553 141.351 19.142C141.351 20.3282 142.268 21.2843 143.48 21.2843C144.7 21.2843 145.622 20.3159 145.622 19.1284C145.622 17.9422 144.705 16.9861 143.493 16.9861ZM144.021 19.3732L144.695 20.3156H144.125L143.519 19.451H142.999V20.3156H142.524V17.8173H143.637C144.219 17.8173 144.601 18.1143 144.601 18.6143C144.603 19.0239 144.365 19.2742 144.023 19.3732H144.021ZM143.618 18.246H142.999V19.0362H143.618C143.927 19.0362 144.112 18.8849 144.112 18.6407C144.112 18.3837 143.927 18.246 143.618 18.246Z" fill="#E6E6E6"/>
</svg>
