<svg width="35" height="29" viewBox="0 0 35 29" fill="none" xmlns="http://www.w3.org/2000/svg">
<path d="M5.83747 21.8223L6.24664 23.4589C6.76492 25.5867 7.89696 26.6778 10.1474 26.6778H24.8365C27.1007 26.6778 28.219 25.6139 28.7509 23.4589L29.1601 21.8223H5.83747ZM5.38739 19.9538H29.6238L32.1879 9.45179L31.0695 8.81076L24.782 13.3934C24.3182 13.7208 24.0046 13.598 23.7454 13.2298L17.8261 4.28264L17.1714 4.25535L11.1976 13.2707C10.9657 13.6253 10.6929 13.7345 10.2292 13.4071L4.06441 8.90623L2.75507 9.24721L5.38739 19.9538ZM3.25971 12.1795C5.06006 12.1795 6.50578 10.7202 6.50578 8.90623C6.50578 7.13318 5.06006 5.66017 3.25971 5.66017C1.45937 5.66017 0 7.11954 0 8.90623C0 10.7202 1.473 12.1795 3.25971 12.1795ZM17.4988 6.50578C19.2855 6.50578 20.7448 5.04642 20.7448 3.24607C20.7448 1.473 19.2855 0 17.4988 0C15.6848 0 14.2391 1.45937 14.2391 3.24607C14.2391 5.04642 15.6985 6.50578 17.4988 6.50578ZM31.7242 12.1795C33.511 12.1795 34.9839 10.7202 34.9839 8.90623C34.9839 7.11954 33.5246 5.66017 31.7242 5.66017C29.9376 5.66017 28.4782 7.13318 28.4782 8.90623C28.4782 10.7202 29.9376 12.1795 31.7242 12.1795Z" fill="#9EFF00"/>
</svg>
