<svg width="40" height="40" viewBox="0 0 40 40" fill="none" xmlns="http://www.w3.org/2000/svg">
<path d="M15.7112 29.1936H29.9336C31.71 29.1936 32.3436 28.6926 32.3436 27.7127C32.3436 24.84 28.689 20.8761 22.8167 20.8761C16.9557 20.8761 13.3012 24.84 13.3012 27.7127C13.3012 28.6926 13.9347 29.1936 15.7112 29.1936ZM22.828 18.883C25.2607 18.883 27.3538 16.7452 27.3538 13.9616C27.3538 11.2114 25.2494 9.17383 22.828 9.17383C20.4067 9.17383 18.3022 11.256 18.3022 13.9839C18.3022 16.7452 20.3954 18.883 22.828 18.883ZM3.49137 29.1936H12.0905C10.9138 27.5123 12.3507 24.1274 14.7833 22.2791C13.5274 21.4552 11.9094 20.8427 9.7936 20.8427C4.69072 20.8427 1.5 24.5505 1.5 27.6348C1.5 28.6369 2.06573 29.1936 3.49137 29.1936ZM9.80492 19.1392C11.9094 19.1392 13.7424 17.2686 13.7424 14.8524C13.7424 12.4585 11.8981 10.6881 9.80492 10.6881C7.70041 10.6881 5.84481 12.503 5.85613 14.8747C5.85613 17.2686 7.68909 19.1392 9.80492 19.1392ZM31.2008 18.5491C31.5856 18.8051 32.1173 18.7272 32.4228 18.2929C33.2941 17.1683 33.8146 15.5094 33.8146 13.8058C33.8146 12.1022 33.2941 10.4543 32.4228 9.31858C32.1173 8.88433 31.5856 8.80639 31.2008 9.06248C30.7483 9.37425 30.669 9.93098 31.0311 10.3875C31.6873 11.2782 32.0607 12.5142 32.0607 13.8058C32.0607 15.0974 31.6761 16.3221 31.0311 17.224C30.6804 17.6917 30.7483 18.2261 31.2008 18.5491ZM35.3986 21.4552C35.8172 21.7335 36.3376 21.6333 36.6431 21.2102C38.0914 19.2506 38.94 16.556 38.94 13.8058C38.94 11.0556 38.1028 8.33875 36.6431 6.40135C36.3376 5.97824 35.8172 5.87803 35.3986 6.15639C34.9799 6.43475 34.9121 6.95807 35.2402 7.41459C36.4735 9.12929 37.1862 11.4341 37.1862 13.8058C37.1862 16.1774 36.4508 18.4711 35.2402 20.1969C34.9234 20.6534 34.9799 21.1768 35.3986 21.4552Z" fill="#9EFF00"/>
</svg>
