<svg width="139" height="37" viewBox="0 0 139 37" fill="none" xmlns="http://www.w3.org/2000/svg">
<path d="M15.2448 0H0V36.4583L15.2448 0Z" fill="#E6E6E6"/>
<path d="M25.9717 0H41.1966V36.4583L25.9717 0Z" fill="#E6E6E6"/>
<path d="M20.6069 13.4375L30.3099 36.4586H23.9438L21.0439 29.1292H13.9429L20.6069 13.4375Z" fill="#E6E6E6"/>
<path d="M66.0664 23.1843L67.864 28.3387C67.9236 28.4678 68.013 28.5274 68.1719 28.5274H71.628C71.8167 28.5274 71.8465 28.438 71.8167 28.2493L64.676 8.41624C64.6462 8.25733 64.6164 8.22754 64.4575 8.22754H60.1671C60.048 8.22754 59.9784 8.31692 59.9784 8.44603C59.9188 9.48883 59.8295 9.80664 59.7004 10.1145L53.3343 28.2195C53.3045 28.438 53.374 28.5274 53.5528 28.5274H56.6415C56.8302 28.5274 56.9196 28.4678 56.9891 28.2791L58.6874 23.1843H66.0664ZM59.6706 19.8175C60.6041 16.997 61.8356 13.382 62.3322 11.3162H62.362C62.9777 13.4813 64.4277 17.7717 65.0832 19.8175H59.6706Z" fill="#E6E6E6"/>
<path d="M80.9963 28.8343C82.8534 28.8343 84.8298 28.4967 86.8359 27.6326C86.9949 27.573 87.0246 27.5035 87.0246 27.3546C86.9651 26.7984 86.8955 25.994 86.8955 25.3782V6.70709C86.8955 6.58791 86.8955 6.52832 86.7466 6.52832H83.3798C83.2507 6.52832 83.1911 6.58791 83.1911 6.74681V13.0731C82.6647 13.0136 82.2973 12.9838 81.8603 12.9838C76.4278 12.9838 73.0908 16.569 73.0908 21.0481C73.0908 26.2422 76.5172 28.8343 80.9963 28.8343ZM83.1911 25.3782C82.6349 25.557 82.0192 25.6265 81.3935 25.6265C78.9305 25.6265 76.9144 24.2361 76.9144 20.8594C76.9144 17.87 78.9901 16.1022 81.7411 16.1022C82.2973 16.1022 82.7839 16.1618 83.1911 16.3207V25.3782Z" fill="#E6E6E6"/>
<path d="M97.7645 12.9834C93.1265 12.9834 90.2563 16.5389 90.2563 20.9286C90.2563 24.8515 92.5406 28.834 97.695 28.834C102.055 28.834 105.114 25.6261 105.114 20.8292C105.114 16.5984 102.522 12.9834 97.7645 12.9834ZM97.5758 16.1019C100.198 16.1019 101.31 18.3563 101.31 20.9286C101.31 24.1066 99.6714 25.6857 97.7645 25.6857C95.4108 25.6857 94.0204 23.7094 94.0204 20.859C94.0204 17.9293 95.5001 16.1019 97.5758 16.1019Z" fill="#E6E6E6"/>
<path d="M108.595 6.52832C108.466 6.52832 108.376 6.58791 108.376 6.74681V27.8809C108.376 27.9703 108.466 28.1292 108.595 28.159C110.075 28.6159 111.624 28.8343 113.223 28.8343C117.801 28.8343 122.251 25.994 122.251 20.2734C122.251 16.132 119.41 12.9838 114.961 12.9838C113.938 12.9838 112.985 13.1427 112.15 13.4207L112.111 6.77661C112.111 6.55812 112.051 6.52832 111.833 6.52832H108.595ZM118.447 20.6508C118.447 24.0772 116.103 25.6861 113.571 25.6861C113.044 25.6861 112.577 25.6563 112.15 25.5272V16.5094C112.637 16.3207 113.223 16.1618 114.306 16.1618C116.749 16.1618 118.447 17.7111 118.447 20.6508Z" fill="#E6E6E6"/>
<path d="M134.816 21.7628C136.326 21.7628 137.567 21.733 137.994 21.6337C138.153 21.6039 138.213 21.5443 138.242 21.4152C138.332 21.0775 138.372 20.3724 138.372 19.5084C138.372 16.5687 136.604 12.9834 132.035 12.9834C127.367 12.9834 124.775 16.7871 124.775 21.0775C124.775 24.8813 126.782 28.834 132.403 28.834C134.508 28.834 135.869 28.4963 137.041 27.9402C137.16 27.8806 137.219 27.7813 137.219 27.6025V25.0302C137.219 24.8813 137.13 24.8515 137.041 24.9111C135.869 25.4076 134.598 25.6559 133.207 25.6559C130.059 25.6559 128.629 23.9179 128.539 21.7628H134.816ZM128.539 19.1012C128.788 17.5916 129.741 15.9529 131.876 15.9529C134.23 15.9529 134.846 17.9293 134.846 18.8231C134.846 18.8529 134.846 18.982 134.846 19.0714C134.717 19.1012 134.319 19.1012 133.148 19.1012H128.539Z" fill="#E6E6E6"/>
</svg>
