<svg width="115" height="35" viewBox="0 0 115 35" fill="none" xmlns="http://www.w3.org/2000/svg">
<path fill-rule="evenodd" clip-rule="evenodd" d="M70.7637 26.8812C64.135 31.7671 54.5271 34.3739 46.2549 34.3739C34.6559 34.3739 24.2138 30.0838 16.3139 22.9486C15.6933 22.3876 16.2494 21.6229 16.9942 22.0598C25.5197 27.0202 36.0611 30.0044 46.95 30.0044C54.2937 30.0044 62.3723 28.485 69.8005 25.332C70.9226 24.8553 71.8611 26.0669 70.7637 26.8812Z" fill="#E6E6E6"/>
<path fill-rule="evenodd" clip-rule="evenodd" d="M73.5196 23.7282C72.6755 22.6458 67.9187 23.2168 65.7836 23.47C65.1332 23.5495 65.0338 22.9834 65.6198 22.5763C69.4083 19.9099 75.6249 20.6795 76.3498 21.5733C77.0747 22.472 76.1611 28.7035 72.601 31.6777C72.0548 32.1345 71.5334 31.8912 71.7767 31.2855C72.5762 29.2894 74.3686 24.8156 73.5196 23.7282Z" fill="#E6E6E6"/>
<path fill-rule="evenodd" clip-rule="evenodd" d="M65.9347 3.75379V1.16189C65.9347 0.769627 66.2326 0.506465 66.5901 0.506465H78.1941C78.5665 0.506465 78.8644 0.774593 78.8644 1.16189V3.38139C78.8594 3.75379 78.5466 4.24039 77.9905 5.01002L71.9775 13.5951C74.2119 13.5405 76.5704 13.8731 78.5963 15.0152C79.0531 15.2733 79.1772 15.6507 79.212 16.0231V18.7888C79.212 19.1662 78.7949 19.6081 78.3579 19.3797C74.7879 17.5077 70.046 17.3042 66.0985 19.3995C65.6964 19.618 65.2743 19.1811 65.2743 18.8037V16.177C65.2743 15.755 65.2793 15.035 65.7013 14.3945L72.6677 4.40425H66.605C66.2326 4.40425 65.9347 4.14109 65.9347 3.75379Z" fill="#E6E6E6"/>
<path fill-rule="evenodd" clip-rule="evenodd" d="M23.6052 19.9259H20.0749C19.7372 19.9011 19.4691 19.6478 19.4443 19.3251V1.20661C19.4443 0.844145 19.7472 0.556154 20.1245 0.556154H23.4165C23.7591 0.57104 24.0322 0.834212 24.0571 1.16192V3.53039H24.1216C24.9806 1.24137 26.5943 0.173823 28.7692 0.173823C30.9787 0.173823 32.3591 1.24137 33.3522 3.53039C34.2062 1.24137 36.1476 0.173823 38.2281 0.173823C39.7078 0.173823 41.3265 0.784558 42.3146 2.15499C43.4318 3.67934 43.2034 5.89388 43.2034 7.83532L43.1984 19.2705C43.1984 19.6329 42.8955 19.9259 42.5182 19.9259H38.9928C38.6402 19.9011 38.3572 19.618 38.3572 19.2705V9.66753C38.3572 8.90287 38.4267 6.99618 38.2579 6.27124C37.9948 5.05474 37.2053 4.71213 36.1824 4.71213C35.3284 4.71213 34.4346 5.28314 34.0721 6.19677C33.7097 7.11039 33.7444 8.6397 33.7444 9.66753V19.2705C33.7444 19.6329 33.4415 19.9259 33.0642 19.9259H29.5388C29.1813 19.9011 28.9032 19.618 28.9032 19.2705L28.8983 9.66753C28.8983 7.64664 29.2309 4.67241 26.7235 4.67241C24.1862 4.67241 24.2855 7.57216 24.2855 9.66753V19.2705C24.2855 19.6329 23.9826 19.9259 23.6052 19.9259Z" fill="#E6E6E6"/>
<path fill-rule="evenodd" clip-rule="evenodd" d="M88.8545 0.173823C94.0929 0.173823 96.9281 4.67241 96.9281 10.3925C96.9281 15.9189 93.795 20.3033 88.8545 20.3033C83.7104 20.3033 80.91 15.8047 80.91 10.1988C80.91 4.55821 83.7452 0.173823 88.8545 0.173823ZM88.8843 3.87299C86.2825 3.87299 86.1186 7.41823 86.1186 9.62781C86.1186 11.8423 86.0839 16.5693 88.8545 16.5693C91.5904 16.5693 91.7195 12.756 91.7195 10.4322C91.7195 8.90287 91.655 7.07563 91.1932 5.62575C90.7959 4.36456 90.0065 3.87299 88.8843 3.87299Z" fill="#E6E6E6"/>
<path fill-rule="evenodd" clip-rule="evenodd" d="M103.721 19.9259H100.205C99.8528 19.9011 99.5698 19.618 99.5698 19.2705L99.5649 1.14703C99.5947 0.81435 99.8876 0.556154 100.245 0.556154H103.517C103.825 0.57104 104.078 0.779594 104.148 1.06262V3.83327H104.212C105.201 1.35557 106.586 0.173823 109.024 0.173823C110.608 0.173823 112.152 0.744837 113.145 2.30891C114.069 3.75879 114.069 6.19676 114.069 7.94952V19.3549C114.029 19.6727 113.736 19.9259 113.388 19.9259H109.848C109.525 19.9011 109.257 19.6627 109.222 19.3549V9.5136C109.222 7.53244 109.451 4.63269 107.013 4.63269C106.154 4.63269 105.364 5.20867 104.972 6.08256C104.476 7.18983 104.411 8.29213 104.411 9.5136V19.2705C104.406 19.6329 104.098 19.9259 103.721 19.9259Z" fill="#E6E6E6"/>
<path fill-rule="evenodd" clip-rule="evenodd" d="M56.6843 11.2713C56.6843 12.6467 56.7191 13.7937 56.0239 15.0152C55.4628 16.0082 54.5691 16.619 53.581 16.619C52.2254 16.619 51.431 15.5862 51.431 14.0618C51.431 11.0528 54.1272 10.5066 56.6843 10.5066V11.2713ZM60.2444 19.8762C60.0111 20.0848 59.6734 20.0997 59.4103 19.9606C58.2384 18.9874 58.0249 18.5356 57.3844 17.6071C55.4479 19.5833 54.0725 20.1741 51.565 20.1741C48.5908 20.1741 46.2819 18.3419 46.2819 14.6726C46.2819 11.8076 47.8311 9.85618 50.0457 8.90284C51.9623 8.05873 54.6386 7.90977 56.6843 7.6764V7.21959C56.6843 6.38045 56.7489 5.38738 56.2523 4.66245C55.8253 4.01199 55.0011 3.74386 54.2712 3.74386C52.9255 3.74386 51.7289 4.43404 51.436 5.86405C51.3764 6.18184 51.143 6.49465 50.8202 6.50955L47.3991 6.14211C47.1111 6.07757 46.7884 5.84419 46.8728 5.40228C47.6573 1.25127 51.4111 0 54.7677 0C56.4857 0 58.73 0.456811 60.0856 1.75773C61.8036 3.36153 61.6397 5.50159 61.6397 7.83033V13.3319C61.6397 14.9854 62.3249 15.7103 62.9704 16.6041C63.1938 16.9218 63.2435 17.3042 62.9555 17.5425C62.2355 18.1433 60.9545 19.2605 60.2494 19.8861L60.2444 19.8762Z" fill="#E6E6E6"/>
<path fill-rule="evenodd" clip-rule="evenodd" d="M10.4024 11.2713C10.4024 12.6467 10.4371 13.7937 9.74197 15.0151C9.18089 16.0082 8.29209 16.6189 7.29903 16.6189C5.94349 16.6189 5.15401 15.5862 5.15401 14.0618C5.15401 11.0528 7.85018 10.5066 10.4024 10.5066V11.2713ZM13.9625 19.8762C13.7291 20.0847 13.3915 20.0996 13.1283 19.9606C11.9565 18.9874 11.748 18.5356 11.1025 17.607C9.16599 19.5832 7.79556 20.1741 5.28311 20.1741C2.31384 20.1741 0 18.3419 0 14.6725C0 11.8075 1.55415 9.85617 3.76372 8.90283C5.68033 8.05872 8.35664 7.90977 10.4024 7.6764V7.21959C10.4024 6.38044 10.4669 5.38738 9.97534 4.66244C9.54335 4.01198 8.71911 3.74386 7.99417 3.74386C6.64857 3.74386 5.44696 4.43404 5.15401 5.86405C5.09442 6.18183 4.86105 6.49465 4.54327 6.50954L1.1172 6.14211C0.829209 6.07756 0.511428 5.84419 0.590873 5.40228C1.38036 1.25127 5.12918 0 8.48574 0C10.2037 0 12.4481 0.456811 13.8036 1.75773C15.5216 3.36153 15.3578 5.50158 15.3578 7.83032V13.3319C15.3578 14.9854 16.043 15.7103 16.6885 16.6041C16.9169 16.9218 16.9665 17.3042 16.6785 17.5425C15.9586 18.1433 14.6775 19.2605 13.9724 19.8861L13.9625 19.8762Z" fill="#E6E6E6"/>
</svg>
