<svg width="126" height="32" viewBox="0 0 126 32" fill="none" xmlns="http://www.w3.org/2000/svg">
<path d="M39.5044 24.7142L41.0337 21.1397C42.7082 22.3798 44.8922 23.0361 47.0767 23.0361C48.6786 23.0361 49.6978 22.4163 49.6978 21.4681C49.6612 18.8419 40.0506 20.8844 39.9775 14.2817C39.9409 10.926 42.9264 8.3363 47.1498 8.3363C49.6612 8.3363 52.1737 8.95658 53.9572 10.3794L52.5282 14.03C50.8872 12.9748 48.8603 12.2392 46.9311 12.2392C45.6205 12.2392 44.7465 12.8589 44.7465 13.6619C44.7831 16.2516 54.4673 14.8289 54.5765 21.1397C54.5765 24.5685 51.6636 26.976 47.5132 26.976C44.4557 26.976 41.6524 26.2466 39.5039 24.7142H39.5044ZM100.398 19.8454C100.012 20.5313 99.4507 21.1021 98.7713 21.4994C98.0919 21.8967 97.319 22.1061 96.532 22.1062C94.079 22.1062 92.0908 20.1138 92.0908 17.6561C92.0908 15.1985 94.079 13.2061 96.532 13.2061C97.319 13.2062 98.0919 13.4156 98.7713 13.8129C99.4507 14.2102 100.012 14.781 100.398 15.4669L104.65 13.1069C103.057 10.2608 100.02 8.3363 96.532 8.3363C91.3948 8.3363 87.2304 12.5086 87.2304 17.6561C87.2304 22.8032 91.3948 26.976 96.532 26.976C100.02 26.976 103.057 25.0515 104.65 22.2054L100.398 19.8454ZM57.3354 26.611H62.6505V0.578125H57.3359L57.3354 26.611ZM107.334 0.578125V26.611H112.649V18.8116L118.948 26.611H125.741L117.732 17.3455L125.159 8.6997H118.656L112.649 15.8877V0.578125H107.334ZM79.0258 8.70074V10.8169C78.1523 9.35757 76.0043 8.3363 73.7472 8.3363C69.0872 8.3363 65.4105 12.4584 65.4105 17.6379C65.4105 22.8173 69.0872 26.976 73.7472 26.976C76.0043 26.976 78.1523 25.9547 79.0258 24.4954V26.611H84.341V8.70074H79.0258ZM79.0258 19.8814C78.2614 21.158 76.6595 22.1057 74.876 22.1057C72.4225 22.1057 70.4343 20.1138 70.4343 17.6561C70.4343 15.1985 72.4225 13.2061 74.876 13.2061C76.6595 13.2061 78.2614 14.1908 79.0258 15.5034V19.8814Z" fill="#E6E6E6"/>
<path d="M11.4355 0C9.713 0 8.31685 1.39928 8.31685 3.12489C8.31644 3.53484 8.39678 3.94086 8.55328 4.31977C8.70978 4.69868 8.93938 5.04305 9.22898 5.33322C9.51857 5.62339 9.86248 5.85369 10.2411 6.01095C10.6197 6.16821 11.0255 6.24936 11.4355 6.24978H14.5546V3.12489C14.5553 2.2969 14.2271 1.50254 13.6422 0.916524C13.0572 0.330509 12.2635 0.000830469 11.4355 0ZM11.4355 8.33303H3.11862C1.39615 8.33303 0 9.73232 0 11.4584C0 13.1841 1.39615 14.5833 3.11862 14.5833H11.436C13.1579 14.5833 14.5546 13.1841 14.5546 11.4584C14.5546 9.73232 13.1579 8.33303 11.4355 8.33303Z" fill="#E6E6E6"/>
<path d="M31.1874 11.4584C31.1874 9.73231 29.7908 8.33303 28.0683 8.33303C26.3458 8.33303 24.9497 9.73231 24.9497 11.4584V14.5833H28.0683C28.8963 14.5825 29.69 14.2528 30.275 13.6668C30.8599 13.0808 31.1881 12.2864 31.1874 11.4584ZM22.8706 11.4584V3.12489C22.8713 2.2969 22.5431 1.50254 21.9581 0.916523C21.3732 0.330509 20.5794 0.000830468 19.7514 0C18.029 0 16.6328 1.39928 16.6328 3.12489V11.4579C16.6328 13.1846 18.029 14.5838 19.7514 14.5838C20.5794 14.583 21.3732 14.2533 21.9581 13.6673C22.5431 13.0813 22.8713 12.2869 22.8706 11.459" fill="#E6E6E6"/>
<path d="M19.7514 31.2513C20.5794 31.2505 21.3732 30.9208 21.9581 30.3348C22.5431 29.7487 22.8713 28.9544 22.8706 28.1264C22.8713 27.2984 22.5431 26.504 21.9581 25.918C21.3732 25.332 20.5794 25.0023 19.7514 25.0015H16.6328V28.1264C16.6328 29.852 18.029 31.2513 19.7514 31.2513ZM19.7514 22.9183H28.0688C29.7908 22.9183 31.1874 21.519 31.1874 19.7928C31.1881 18.9649 30.8599 18.1705 30.275 17.5845C29.69 16.9985 28.8963 16.6688 28.0683 16.668H19.7514C18.029 16.668 16.6328 18.0672 16.6328 19.7928C16.6324 20.2028 16.7127 20.6088 16.8692 20.9877C17.0257 21.3666 17.2553 21.711 17.5449 22.0012C17.8345 22.2913 18.1784 22.5216 18.557 22.6789C18.9356 22.8362 19.3415 22.9173 19.7514 22.9177" fill="#E6E6E6"/>
<path d="M1.57358e-06 19.7928C-0.000410028 20.2028 0.0799291 20.6088 0.236432 20.9877C0.392935 21.3666 0.622536 21.711 0.912127 22.0012C1.20172 22.2913 1.54563 22.5216 1.92422 22.6789C2.30281 22.8362 2.70867 22.9173 3.11862 22.9177C3.94661 22.9169 4.74037 22.5872 5.32531 22.0012C5.91024 21.4152 6.23846 20.6208 6.23777 19.7928V16.668H3.11862C1.39615 16.668 1.57358e-06 18.0672 1.57358e-06 19.7928ZM8.31685 19.7928V28.1259C8.31685 29.852 9.713 31.2513 11.4355 31.2513C12.2635 31.2505 13.0572 30.9208 13.6422 30.3348C14.2271 29.7487 14.5553 28.9544 14.5546 28.1264V19.7928C14.555 19.3828 14.4747 18.9768 14.3181 18.5978C14.1616 18.2189 13.932 17.8745 13.6423 17.5843C13.3527 17.2941 13.0087 17.0639 12.63 16.9066C12.2514 16.7494 11.8455 16.6683 11.4355 16.668C9.713 16.668 8.31685 18.0672 8.31685 19.7928Z" fill="#E6E6E6"/>
</svg>
