<svg width="100" height="46" viewBox="0 0 100 46" fill="none" xmlns="http://www.w3.org/2000/svg">
<path d="M0 35.7136L10.265 19.7409H1.21603C1.13934 19.2808 1.10648 18.7768 1.10648 18.2181C1.10648 17.6813 1.13934 17.1883 1.21603 16.7391H15.8632L16.0494 17.2321L5.70767 33.2377H15.403C15.4797 33.7416 15.5126 34.2675 15.5126 34.7934C15.5126 35.2973 15.4797 35.7793 15.403 36.2394H0.186239L0 35.7136Z" fill="#E6E6E6"/>
<path d="M29.623 23.3892C29.623 21.8883 29.2395 20.8585 28.4836 20.2669C27.7277 19.6863 26.6212 19.3905 25.1752 19.3905C24.2878 19.3905 23.4552 19.4563 22.6883 19.5987C21.9105 19.7411 21.1655 19.9164 20.4206 20.1464C19.9386 19.3138 19.6976 18.306 19.6976 17.1447C20.563 16.8708 21.5052 16.6517 22.5459 16.4983C23.5867 16.345 24.5836 16.2683 25.5476 16.2683C28.0783 16.2683 30.0064 16.8489 31.332 17.9992C32.6466 19.1495 33.3149 21.0009 33.3149 23.5316V35.7357C32.4275 35.9329 31.3539 36.152 30.0831 36.3602C28.8123 36.5793 27.5196 36.6779 26.2049 36.6779C24.967 36.6779 23.8386 36.5683 22.8417 36.3383C21.8448 36.1082 20.9903 35.7467 20.2891 35.2318C19.588 34.7278 19.0512 34.0815 18.6678 33.2927C18.2843 32.5039 18.0981 31.5508 18.0981 30.4443C18.0981 29.3598 18.3172 28.3957 18.7664 27.5741C19.2046 26.7524 19.8071 26.0623 20.574 25.5254C21.3299 24.9777 22.2063 24.5723 23.2032 24.3094C24.1892 24.0465 25.2299 23.9041 26.3255 23.9041C27.1361 23.9041 27.8044 23.926 28.3193 23.9589C28.8342 23.9917 29.2724 24.0465 29.6339 24.0903V23.3892H29.623ZM29.623 27.0811C29.2395 27.0263 28.7575 26.9825 28.1769 26.9277C27.5963 26.8729 27.1033 26.851 26.6979 26.851C25.1204 26.851 23.9263 27.1468 23.1046 27.7274C22.283 28.3081 21.8667 29.1954 21.8667 30.3896C21.8667 31.1455 22.0091 31.748 22.283 32.1753C22.5569 32.6025 22.9074 32.9312 23.3237 33.1612C23.74 33.3913 24.2001 33.5337 24.715 33.5775C25.219 33.6323 25.701 33.6542 26.1611 33.6542C26.7418 33.6542 27.3443 33.6214 27.9687 33.5556C28.5932 33.4899 29.1409 33.4023 29.623 33.2708V27.0811Z" fill="#E6E6E6"/>
<path d="M37.423 16.74C37.675 16.6852 37.9379 16.6523 38.2008 16.6304C38.4637 16.6085 38.7376 16.5976 39.0225 16.5976C39.2744 16.5976 39.5374 16.6085 39.8222 16.6304C40.0961 16.6523 40.37 16.6962 40.6219 16.74C40.6438 16.7948 40.6767 16.9481 40.7205 17.2111C40.7534 17.474 40.7972 17.7588 40.8301 18.0656C40.8629 18.3723 40.9068 18.6571 40.9396 18.942C40.9725 19.2268 40.9944 19.4021 40.9944 19.4788C41.2464 19.0734 41.5531 18.6791 41.9037 18.2956C42.2543 17.9122 42.6815 17.5726 43.1745 17.2658C43.6675 16.9591 44.2262 16.7181 44.8506 16.5428C45.4751 16.3675 46.1653 16.2799 46.9212 16.2799C48.0605 16.2799 49.1232 16.4661 50.0982 16.8495C51.0732 17.233 51.9058 17.8136 52.6069 18.6133C53.3081 19.413 53.8449 20.4319 54.2393 21.6589C54.6336 22.8859 54.8308 24.3429 54.8308 26.019C54.8308 29.3713 53.9216 31.9896 52.1139 33.8739C50.2954 35.7582 47.7319 36.7113 44.4124 36.7113C43.8537 36.7113 43.284 36.6785 42.7034 36.6018C42.1228 36.5251 41.6079 36.4265 41.1806 36.295V45.2345C40.8739 45.2893 40.5562 45.3221 40.2056 45.3441C39.866 45.366 39.5483 45.3769 39.2744 45.3769C39.0006 45.3769 38.6829 45.366 38.3432 45.3441C38.0036 45.3221 37.6859 45.2783 37.412 45.2345V16.74H37.423ZM41.1916 33.0523C41.6736 33.2276 42.1666 33.359 42.6706 33.4357C43.1745 33.5124 43.8318 33.5453 44.6534 33.5453C45.5627 33.5453 46.4063 33.4029 47.1622 33.1071C47.9181 32.8113 48.5754 32.3621 49.1232 31.7596C49.6709 31.1461 50.0982 30.3792 50.4159 29.459C50.7336 28.5387 50.887 27.4323 50.887 26.1724C50.887 24.1457 50.5145 22.5353 49.7695 21.3412C49.0246 20.1471 47.7976 19.5555 46.0995 19.5555C45.4641 19.5555 44.8616 19.665 44.27 19.8951C43.6894 20.1251 43.1635 20.4648 42.7144 20.9249C42.2543 21.385 41.8927 21.9547 41.6079 22.6558C41.3231 23.3569 41.1916 24.1786 41.1916 25.1426V33.0523Z" fill="#E6E6E6"/>
<path d="M59.5196 19.6971H57.0438C56.989 19.4889 56.9561 19.2589 56.9342 18.9959C56.9123 18.733 56.9014 18.4701 56.9014 18.2181C56.9014 17.9661 56.9123 17.7032 56.9342 17.4403C56.9561 17.1774 57 16.9363 57.0438 16.7391H63.2116V36.2504C62.9377 36.3052 62.62 36.338 62.2804 36.3599C61.9408 36.3819 61.6231 36.3928 61.3492 36.3928C61.0972 36.3928 60.8014 36.3819 60.4508 36.3599C60.1112 36.338 59.7935 36.2942 59.5196 36.2504V19.6971Z" fill="#E6E6E6"/>
<path d="M71.3074 27.421C71.3622 29.5463 71.91 31.1129 72.9617 32.0989C74.0134 33.0848 75.569 33.5778 77.6176 33.5778C79.4143 33.5778 81.1343 33.2601 82.7556 32.6247C82.9638 33.0081 83.1281 33.4683 83.2486 34.016C83.3801 34.5638 83.4458 35.1006 83.4787 35.6374C82.6461 35.988 81.7259 36.2618 80.718 36.4371C79.7211 36.6124 78.6036 36.7001 77.3876 36.7001C75.6129 36.7001 74.0901 36.4481 72.8193 35.9551C71.5485 35.4621 70.5077 34.761 69.6861 33.8626C68.8644 32.9643 68.2619 31.9017 67.8785 30.6637C67.495 29.4367 67.3088 28.0892 67.3088 26.6103C67.3088 25.1642 67.495 23.8167 67.8566 22.5569C68.2181 21.297 68.7878 20.2124 69.5437 19.2812C70.2996 18.361 71.2636 17.6161 72.4139 17.0792C73.5642 16.5315 74.9336 16.2576 76.5002 16.2576C77.8477 16.2576 79.0199 16.4877 80.0387 16.9478C81.0576 17.4079 81.9011 18.0324 82.5913 18.8321C83.2705 19.6318 83.7964 20.5849 84.1469 21.6804C84.4975 22.7869 84.6838 23.981 84.6838 25.2738C84.6838 25.6243 84.6728 26.0078 84.6399 26.3912C84.618 26.7856 84.5852 27.1252 84.5633 27.3991H71.3074V27.421ZM80.9699 24.6055C80.9699 23.8934 80.8713 23.2142 80.6851 22.5678C80.4989 21.9215 80.214 21.3627 79.8525 20.8807C79.48 20.3987 79.0199 20.0152 78.4502 19.7195C77.8806 19.4237 77.2014 19.2812 76.4126 19.2812C74.8679 19.2812 73.6847 19.7523 72.8521 20.6835C72.0305 21.6257 71.5266 22.9293 71.3513 24.6055H80.9699Z" fill="#E6E6E6"/>
<path d="M88.8468 16.7392C89.1207 16.6844 89.3946 16.6515 89.6466 16.6296C89.8985 16.6077 90.1614 16.5967 90.4463 16.5967C90.7202 16.5967 91.005 16.6077 91.2789 16.6296C91.5528 16.6515 91.8157 16.6953 92.0348 16.7392C92.1115 17.1226 92.1882 17.6156 92.2648 18.24C92.3415 18.8645 92.3744 19.3903 92.3744 19.8176C92.9112 18.9521 93.6123 18.2071 94.4888 17.5717C95.3652 16.9363 96.4826 16.6186 97.852 16.6186C98.0602 16.6186 98.2683 16.6296 98.4764 16.6406C98.6956 16.6515 98.8708 16.6734 99.0242 16.6953C99.079 16.9254 99.1119 17.1664 99.1338 17.4184C99.1557 17.6703 99.1666 17.9333 99.1666 18.2181C99.1666 18.5249 99.1447 18.8426 99.1119 19.1712C99.079 19.4999 99.0242 19.8176 98.9804 20.1243C98.7722 20.0695 98.5641 20.0476 98.3559 20.0476C98.1368 20.0476 97.9725 20.0476 97.841 20.0476C97.1618 20.0476 96.5045 20.1462 95.8801 20.3325C95.2556 20.5187 94.6969 20.8583 94.2039 21.3403C93.7109 21.8224 93.3165 22.4797 93.0208 23.3232C92.725 24.1558 92.5825 25.2404 92.5825 26.555V36.2504C92.3087 36.3052 91.991 36.338 91.6514 36.36C91.3117 36.3819 90.994 36.3928 90.7202 36.3928C90.4463 36.3928 90.1286 36.3819 89.789 36.36C89.4494 36.338 89.1207 36.2942 88.814 36.2504V16.7392H88.8468Z" fill="#E6E6E6"/>
<path d="M66.7938 5.25851H63.1128L65.7202 2.65116C65.512 2.36633 65.2819 2.09245 65.0409 1.84048C64.789 1.58851 64.526 1.35845 64.2302 1.16125L61.6229 3.7686V0.0876418C61.2833 0.0328657 60.9327 0 60.5712 0H60.5602C60.1987 0 59.8482 0.0328657 59.5085 0.0876418V3.7686L56.9012 1.16125C56.6164 1.3694 56.3425 1.59946 56.0905 1.84048C55.8385 2.09245 55.6194 2.35537 55.4113 2.65116L58.0296 5.25851H54.3486C54.3486 5.25851 54.261 5.94868 54.261 6.31021C54.261 6.67173 54.2939 7.0223 54.3486 7.36191H58.0296L55.4222 9.96925C55.8276 10.5389 56.3315 11.0429 56.9122 11.4592L59.5195 8.85182V12.5328C59.8591 12.5875 60.2097 12.6204 60.5712 12.6204H60.5822C60.9437 12.6204 61.2942 12.5875 61.6339 12.5328V8.85182L64.2412 11.4592C64.526 11.251 64.7999 11.021 65.0519 10.7799C65.3038 10.528 65.5339 10.265 65.7311 9.96925L63.1238 7.36191H66.8047C66.8595 7.0223 66.8924 6.67173 66.8924 6.31021V6.29925C66.8814 5.94868 66.8595 5.59812 66.7938 5.25851ZM62.1488 6.32116C62.1488 6.79224 62.0611 7.2414 61.9077 7.6577C61.4914 7.81107 61.0423 7.89871 60.5712 7.89871C60.1001 7.89871 59.651 7.81107 59.2347 7.6577C59.0813 7.2414 58.9937 6.79224 58.9937 6.32116V6.31021C58.9937 5.83913 59.0813 5.38997 59.2347 4.97367C59.651 4.8203 60.1001 4.73266 60.5712 4.73266C61.0423 4.73266 61.4914 4.8203 61.9077 4.97367C62.0611 5.38997 62.1488 5.83913 62.1488 6.32116Z" fill="#E6E6E6"/>
</svg>
