<svg width="102" height="23" viewBox="0 0 102 23" fill="none" xmlns="http://www.w3.org/2000/svg">
<path fill-rule="evenodd" clip-rule="evenodd" d="M83.0281 6.87212C83.4179 7.54465 83.5455 8.30982 83.5876 9.17004L83.6429 10.3166V18.3341L83.6995 19.4818C83.8126 21.3563 85.1949 22.7422 87.0838 22.8601L88.2255 22.9167V10.3166L88.2821 9.17004C88.329 8.31945 88.4553 7.53984 88.8512 6.86249C89.2545 6.16774 89.8335 5.59133 90.5301 5.19112C91.2266 4.79092 92.0162 4.58101 92.8195 4.58248C93.6229 4.58394 94.4117 4.79672 95.1068 5.19946C95.8019 5.6022 96.3788 6.18071 96.7796 6.87693C97.1694 7.54946 97.2909 8.32907 97.3378 9.17004L97.3944 10.313V18.3341L97.4509 19.4818C97.5688 21.3659 98.9404 22.7518 100.835 22.8601L101.977 22.9167V9.17004C101.977 6.73926 101.012 4.40798 99.2931 2.68882C97.5746 0.969662 95.2437 0.00336647 92.813 0.00240943C91.5119 0.00103737 90.2256 0.277324 89.0399 0.812811C87.8542 1.3483 86.7964 2.13065 85.9372 3.10761C85.0777 2.13104 84.0198 1.34887 82.8342 0.813226C81.6486 0.27758 80.3625 0.000758545 79.0615 0.00120609C77.1582 0.00120609 75.3921 0.578695 73.9291 1.57607C73.0364 0.579897 71.0392 0.00120609 69.8927 0.00120609V22.9167L71.0392 22.8601C72.957 22.7338 74.343 21.3851 74.4175 19.4818L74.4789 18.3341V10.3166L74.5355 9.17004C74.5836 8.30501 74.7039 7.54465 75.0949 6.8673C75.4986 6.17299 76.0773 5.59671 76.7734 5.19602C77.4694 4.79532 78.2584 4.58423 79.0615 4.58382C79.8653 4.58399 80.6548 4.7955 81.3511 5.19714C82.0473 5.59877 82.6256 6.17641 83.0281 6.87212ZM4.58237 22.8613L5.72892 22.9167H22.9152L22.8587 21.7737C22.7035 19.8897 21.3692 18.5133 19.4792 18.3906L18.3326 18.3341H8.02203L21.7687 4.58261L21.7121 3.44087C21.6231 1.53757 20.2323 0.162422 18.3326 0.0577515L17.1861 0.0060184L-0.000244141 0.00120609L0.0563016 1.14776C0.206689 3.01377 1.56018 4.41899 3.43461 4.52727L4.58237 4.58382H14.8929L1.14631 18.3353L1.20286 19.4818C1.31595 21.3707 2.67906 22.7386 4.58237 22.8601V22.8613ZM65.3943 3.35545C66.4584 4.41938 67.3026 5.68251 67.8785 7.07271C68.4544 8.46292 68.7509 9.95296 68.7509 11.4577C68.7509 12.9625 68.4544 14.4526 67.8785 15.8428C67.3026 17.233 66.4584 18.4961 65.3943 19.56C63.2444 21.7082 60.3295 22.9149 57.2902 22.9149C54.251 22.9149 51.3361 21.7082 49.1861 19.56C44.7118 15.0857 44.7118 7.82978 49.1861 3.35545C50.2493 2.29188 51.5116 1.44814 52.9008 0.872414C54.2901 0.296683 55.7792 0.000237505 57.283 2.76208e-06C58.7893 -0.00104301 60.281 0.294881 61.6728 0.870847C63.0646 1.44681 64.3292 2.29152 65.3943 3.35666V3.35545ZM62.1519 6.60022C63.4407 7.88997 64.1647 9.63866 64.1647 11.4619C64.1647 13.2852 63.4407 15.0339 62.1519 16.3237C60.8622 17.6125 59.1135 18.3364 57.2902 18.3364C55.4669 18.3364 53.7182 17.6125 52.4285 16.3237C51.1397 15.0339 50.4158 13.2852 50.4158 11.4619C50.4158 9.63866 51.1397 7.88997 52.4285 6.60022C53.7182 5.31144 55.4669 4.5875 57.2902 4.5875C59.1135 4.5875 60.8622 5.31144 62.1519 6.60022ZM33.2354 2.76208e-06C34.7393 0.000395507 36.2284 0.297031 37.6177 0.87297C39.007 1.44891 40.2692 2.29287 41.3323 3.35666C45.8078 7.82978 45.8078 15.0869 41.3323 19.56C39.1823 21.7082 36.2674 22.9149 33.2282 22.9149C30.1889 22.9149 27.274 21.7082 25.1241 19.56C20.6498 15.0857 20.6498 7.82978 25.1241 3.35545C26.1873 2.29188 27.4495 1.44814 28.8388 0.872414C30.2281 0.296683 31.7171 0.000237505 33.221 2.76208e-06H33.2354ZM38.0899 6.59781C39.3791 7.88761 40.1032 9.63656 40.1032 11.4601C40.1032 13.2837 39.3791 15.0327 38.0899 16.3225C36.8002 17.6112 35.0515 18.3352 33.2282 18.3352C31.4049 18.3352 29.6562 17.6112 28.3665 16.3225C27.0777 15.0327 26.3537 13.284 26.3537 11.4607C26.3537 9.63745 27.0777 7.88876 28.3665 6.59901C29.6562 5.31024 31.4049 4.58629 33.2282 4.58629C35.0515 4.58629 36.8002 5.31024 38.0899 6.59901V6.59781Z" fill="#E6E6E6"/>
</svg>
